<svg width="31" height="31" viewBox="0 0 31 31" fill="none" xmlns="http://www.w3.org/2000/svg">
<path d="M14.8542 3.875C18.1086 3.875 21.2297 5.16782 23.531 7.46904C25.8322 9.77027 27.125 12.8914 27.125 16.1458C27.125 19.4003 25.8322 22.5214 23.531 24.8226C21.2297 27.1238 18.1086 28.4167 14.8542 28.4167C11.5997 28.4167 8.4786 27.1238 6.17737 24.8226C3.87614 22.5214 2.58333 19.4003 2.58333 16.1458C2.58333 12.8914 3.87614 9.77027 6.17737 7.46904C8.4786 5.16782 11.5997 3.875 14.8542 3.875ZM14.8542 5.16667C11.9423 5.16667 9.14971 6.3234 7.09072 8.38239C5.03173 10.4414 3.87499 13.234 3.87499 16.1458C3.87499 19.0577 5.03173 21.8503 7.09072 23.9093C9.14971 25.9683 11.9423 27.125 14.8542 27.125C16.296 27.125 17.7237 26.841 19.0557 26.2893C20.3878 25.7375 21.5981 24.9288 22.6176 23.9093C23.6371 22.8898 24.4458 21.6794 24.9976 20.3474C25.5493 19.0153 25.8333 17.5876 25.8333 16.1458C25.8333 13.234 24.6766 10.4414 22.6176 8.38239C20.5586 6.3234 17.766 5.16667 14.8542 5.16667ZM14.2083 9.04167H15.5V16.0425L21.5708 19.5429L20.925 20.6667L14.2083 16.7917V9.04167Z" fill="white"/>
</svg>
